{"glyphs":{"0":{"ha":1226,"x_min":-43,"x_max":1232,"o":"m 483 931 q 1044 849 857 966 q 1191 580 1232 732 q 990 314 1150 428 q 475 213 830 201 q 38 424 119 224 q 106 765 -43 623 q 483 931 255 908 m 483 882 q 127 577 136 828 q 483 277 119 326 q 982 399 846 228 q 990 727 1118 570 q 483 882 863 884 m 418 60 q 583 103 467 136 q 792 103 700 71 l 792 71 q 605 57 700 22 q 461 43 510 92 l 418 60 z "},"1":{"ha":559,"x_min":27,"x_max":532,"o":"m 33 624 q 244 884 168 770 l 385 906 q 353 65 342 385 q 532 33 385 43 l 526 0 l 27 0 l 33 27 q 201 71 174 27 l 222 765 q 65 618 163 743 l 33 624 z "},"2":{"ha":933,"x_min":-14,"x_max":944,"o":"m 3 -157 q 366 127 35 5 q 765 448 697 250 q 625 746 833 646 q 285 773 418 846 q 132 643 152 700 q 122 537 111 586 q 90 494 133 488 q 16 567 46 499 q 119 732 -14 635 q 429 854 252 830 q 760 789 605 879 q 914 496 914 700 q 559 144 914 293 q 144 -81 203 -5 l 811 -87 q 876 163 865 -60 l 903 163 q 944 -347 892 -76 l 917 -353 q 822 -125 882 -152 l 3 -157 z "},"3":{"ha":1004,"x_min":24,"x_max":1023,"o":"m 30 960 q 24 608 52 765 l 68 591 l 73 743 q 165 792 95 792 l 665 792 l 236 564 q 247 510 193 515 q 776 315 686 494 q 743 -24 865 136 q 407 -165 621 -184 q 144 -76 193 -146 l 138 76 l 100 87 q 117 -277 127 -119 l 149 -277 l 144 -125 q 751 -119 480 -304 q 933 317 1023 65 q 382 553 844 570 l 898 841 l 90 841 l 73 906 l 73 960 l 30 960 z "},"4":{"ha":1031,"x_min":0,"x_max":982,"o":"m 684 1118 q 33 418 363 705 q 65 363 0 353 l 526 380 l 564 380 l 564 125 l 570 71 q 239 38 570 11 l 212 0 l 977 0 l 960 33 q 722 71 749 11 l 711 369 l 895 369 q 911 217 911 358 l 960 201 q 982 760 933 412 l 939 770 q 884 461 928 467 l 700 477 l 684 1118 m 570 461 l 152 434 q 575 906 450 830 l 570 461 z "},"5":{"ha":939,"x_min":27,"x_max":911,"o":"m 618 1112 l 570 1118 q 581 933 591 998 l 38 939 q 27 336 60 667 q 382 648 179 624 q 678 583 586 673 q 760 307 770 494 q 529 60 749 119 q 174 109 309 0 q 168 65 130 109 q 477 -19 298 -33 q 784 100 656 -5 q 909 372 911 206 q 803 637 906 537 q 496 732 700 738 q 103 526 293 727 q 92 890 92 684 l 581 890 l 575 776 l 602 765 q 618 1112 597 922 z "},"6":{"ha":993,"x_min":-27,"x_max":966,"o":"m 206 548 q 255 543 206 467 q 475 656 309 640 q 732 583 640 673 q 817 304 825 494 q 616 54 808 114 q 239 114 423 -5 q 138 694 -27 439 q 537 949 304 949 l 543 808 l 597 808 q 591 1101 537 966 l 548 1096 l 548 1031 l 472 1015 q 174 833 271 949 q 38 589 76 716 q 38 323 0 461 q 122 127 76 184 q 260 19 168 71 q 529 -24 353 -33 q 836 95 705 -16 q 963 372 966 206 q 846 648 960 537 q 518 727 732 760 q 206 548 304 694 z "},"7":{"ha":939,"x_min":19,"x_max":914,"o":"m 19 1053 q 35 635 62 857 l 73 613 q 100 830 68 814 q 762 846 339 890 q 301 27 323 114 q 315 -106 279 -60 q 399 -130 350 -152 q 450 -79 448 -109 q 420 -22 453 -49 q 491 252 388 5 q 833 830 594 499 l 833 700 l 871 694 q 914 1047 849 868 l 871 1047 q 833 911 854 922 q 117 895 377 944 q 73 1058 57 873 l 19 1053 z "},"8":{"ha":1145,"x_min":5,"x_max":1139,"o":"m 537 939 q 174 779 260 890 q 146 589 87 667 q 315 483 206 510 q 35 279 65 401 q 98 76 5 157 q 415 -24 190 -5 q 854 24 640 -43 q 1104 198 1069 92 q 1034 396 1139 304 q 787 494 928 488 l 895 543 q 1020 749 1020 591 q 537 939 939 955 m 948 125 q 445 27 754 -22 q 153 214 136 76 q 310 412 170 353 q 621 456 450 472 q 860 393 792 439 q 955 285 928 347 q 948 125 982 222 m 868 586 q 477 510 722 483 q 247 675 233 537 q 412 876 260 814 q 678 906 564 939 q 841 830 792 873 q 909 727 890 787 q 868 586 928 667 z "},"9":{"ha":1123,"x_min":22,"x_max":1101,"o":"m 781 385 q 732 391 781 467 q 513 277 678 293 q 255 350 347 260 q 171 629 163 439 q 358 876 179 819 q 703 887 537 933 q 944 722 868 841 q 982 448 1020 602 q 822 171 944 293 q 521 -43 700 49 l 380 -98 l 163 -179 l 174 -206 q 618 -163 407 -119 l 624 -119 l 488 -114 l 543 -87 q 768 38 624 -49 q 1006 244 911 125 q 1101 540 1101 363 q 1015 792 1101 716 q 781 917 928 868 q 458 958 635 966 q 152 838 282 949 q 24 562 22 727 q 141 285 27 396 q 469 206 255 174 q 781 385 684 239 z "},"<":{"ha":0,"x_min":0,"x_max":0,"o":""},"A":{"ha":917,"x_min":30,"x_max":1001,"o":"m 35 5 l 30 22 q 155 71 127 33 l 415 749 q 279 781 404 803 l 274 808 l 746 808 l 735 787 q 600 738 605 803 l 865 -98 q 1001 -114 914 -109 l 996 -136 q 600 -136 789 -141 l 621 -114 q 730 -87 713 -119 l 610 298 q 290 288 562 309 l 220 65 q 350 38 258 38 l 355 5 l 35 5 m 600 331 l 480 732 q 448 711 464 738 l 317 358 q 600 331 551 336 z "},"B":{"ha":776,"x_min":33,"x_max":705,"o":"m 33 803 l 266 803 l 494 803 q 694 605 705 760 q 581 407 684 450 q 689 198 684 336 q 570 0 694 60 l 60 11 l 60 22 q 228 49 195 11 l 228 407 l 222 732 q 54 781 222 798 l 33 803 m 326 743 l 326 423 l 488 423 q 583 618 597 472 q 391 760 570 765 l 326 743 m 326 363 l 331 43 l 423 33 q 591 163 575 27 q 499 380 608 298 l 326 363 z "},"C":{"ha":857,"x_min":-52,"x_max":789,"o":"m 703 863 l 670 857 l 648 776 q 117 624 285 846 q 125 133 -52 401 q 757 60 301 -136 q 746 92 789 109 q 250 233 355 -76 q 301 686 144 543 q 632 738 458 830 q 681 532 675 722 l 719 494 q 703 863 681 754 z "},"D":{"ha":1047,"x_min":27,"x_max":1063,"o":"m 326 819 l 27 819 l 38 803 q 195 754 163 787 l 190 76 q 33 11 168 33 l 27 -5 l 385 -5 q 887 149 711 5 q 977 567 1063 293 q 326 819 890 841 m 266 33 q 239 130 222 38 l 239 732 q 255 776 239 770 q 873 415 879 814 q 266 33 868 16 z "},"E":{"ha":819,"x_min":16,"x_max":792,"o":"m 783 576 l 792 951 l 760 937 q 666 804 740 799 l 16 797 l 32 776 q 180 743 143 764 l 180 41 q 70 -9 173 -9 l 64 -31 l 481 -20 q 537 -218 543 -37 l 574 -239 l 580 151 l 550 136 q 464 25 537 18 q 296 57 296 1 l 296 317 q 438 323 413 345 l 452 201 l 475 195 q 531 471 475 383 l 501 478 l 445 383 q 309 400 326 367 l 303 759 l 660 764 q 753 604 764 771 l 783 576 z "},"F":{"ha":787,"x_min":43,"x_max":727,"o":"m 727 591 q 727 966 705 776 l 700 949 q 618 819 705 830 l 43 814 l 60 792 q 195 722 184 792 l 190 71 q 92 22 184 22 l 87 0 l 423 0 l 396 43 q 293 87 293 33 l 304 336 q 418 347 396 369 l 423 277 l 445 255 q 461 483 450 407 l 439 494 l 423 407 q 304 423 331 385 l 298 776 l 613 781 q 694 624 705 781 l 727 591 z "},"G":{"ha":857,"x_min":-22,"x_max":825,"o":"m 825 901 l 798 873 l 765 754 q 315 833 586 895 q 11 488 43 770 q 144 100 -22 206 q 673 -16 309 -5 l 667 239 q 781 293 684 298 l 803 320 l 445 320 l 467 277 q 624 152 624 309 l 624 38 q 182 233 277 27 q 220 689 87 439 q 716 727 353 939 q 798 586 776 694 l 825 553 l 825 901 z "},"H":{"ha":1096,"x_min":27,"x_max":1069,"o":"m 27 825 q 434 825 228 825 l 429 792 q 298 738 288 792 l 298 499 l 819 494 l 803 933 q 608 971 803 982 l 591 998 l 1020 998 l 1020 977 q 873 933 863 977 l 901 43 q 1058 11 933 11 l 1069 -11 l 651 -16 l 656 11 q 830 49 808 11 l 819 429 l 787 445 l 304 434 l 309 81 q 423 22 315 27 l 423 0 l 54 5 l 49 22 q 163 60 141 22 l 157 738 q 49 798 130 787 l 27 825 z "},"I":{"ha":608,"x_min":49,"x_max":526,"o":"m 76 846 q 521 841 295 819 l 515 808 q 374 765 380 808 l 374 92 q 510 38 401 27 l 526 5 l 49 5 l 60 27 q 228 92 190 33 l 228 760 q 98 808 212 814 l 76 846 z "},"J":{"ha":575,"x_min":49,"x_max":521,"o":"m 49 846 q 521 841 298 830 l 515 808 q 374 765 401 803 l 363 109 q 81 -298 315 -190 q 49 -277 49 -315 q 228 92 233 -195 l 228 760 q 71 814 212 814 l 49 846 z "},"K":{"ha":1069,"x_min":49,"x_max":1009,"o":"m 49 830 q 456 830 250 830 l 450 798 q 336 738 309 798 l 336 505 l 336 239 l 770 624 q 656 646 765 656 l 646 684 l 1009 684 l 1004 651 q 868 613 922 667 l 613 380 l 727 -146 q 895 -217 754 -217 l 911 -250 l 521 -255 l 526 -228 q 635 -168 662 -217 l 591 125 l 564 336 l 331 141 l 331 87 q 445 27 336 33 l 445 5 l 76 11 l 71 27 q 184 65 163 27 l 179 743 q 71 803 152 792 l 49 830 z "},"L":{"ha":684,"x_min":5,"x_max":651,"o":"m 33 846 q 477 841 252 819 l 472 808 q 331 765 336 808 l 331 92 q 467 49 358 27 q 613 369 602 92 l 651 369 q 597 -174 586 92 l 564 -152 q 543 5 575 -22 l 5 5 l 16 27 q 184 92 146 33 l 184 760 q 54 808 168 814 l 33 846 z "},"M":{"ha":1666,"x_min":60,"x_max":1606,"o":"m 60 0 l 81 27 q 206 87 184 22 l 363 787 q 212 830 358 836 l 190 857 l 705 857 l 694 836 q 570 792 559 836 l 955 81 l 1291 808 q 1123 830 1259 841 l 1096 852 l 1573 852 l 1552 830 q 1383 798 1383 836 l 1487 54 q 1600 22 1508 16 l 1606 0 l 1308 0 l 1308 16 q 1449 49 1427 22 l 1356 749 q 1324 776 1345 798 l 944 -87 q 890 -87 917 -114 l 412 743 l 260 71 q 412 22 282 22 l 423 0 l 60 0 z "},"N":{"ha":1226,"x_min":16,"x_max":1188,"o":"m 38 803 l 16 830 l 369 819 l 993 71 l 966 618 q 776 667 933 673 l 743 689 l 1188 689 l 1172 667 q 1031 624 1031 667 l 1074 -184 q 1036 -206 1058 -206 l 233 760 l 255 54 q 396 22 277 27 l 418 5 l 60 5 l 87 22 q 174 81 163 33 l 190 770 q 38 803 163 808 z "},"O":{"ha":1253,"x_min":-11,"x_max":1264,"o":"m 515 852 q 1077 754 890 895 q 1223 431 1264 613 q 1023 114 1183 250 q 507 -8 863 -22 q 71 244 152 5 q 138 654 -11 483 q 515 852 288 825 m 510 830 q 155 445 163 760 q 510 49 146 130 q 1004 201 873 -33 q 1012 635 1134 434 q 510 830 890 836 z "},"P":{"ha":1025,"x_min":11,"x_max":1009,"o":"m 38 841 q 705 841 257 814 q 947 488 1009 754 q 477 228 884 222 q 461 260 450 239 q 825 567 868 288 q 407 795 781 846 q 336 760 342 803 l 336 87 q 477 22 347 16 l 488 0 l 11 0 l 22 22 q 190 87 157 11 l 190 754 q 60 803 174 808 l 38 841 z "},"Q":{"ha":1253,"x_min":14,"x_max":1267,"o":"m 518 863 q 1080 765 892 906 q 1226 442 1267 624 q 1080 165 1185 260 q 887 27 974 71 l 909 0 q 1055 -22 936 -33 l 1088 -43 q 730 -119 898 -54 l 746 -76 q 865 -22 849 -60 l 838 22 q 307 22 513 -60 q 57 304 100 103 q 152 670 14 505 q 518 863 290 836 m 524 830 q 165 477 176 760 q 358 90 155 195 q 822 54 562 -16 l 806 114 q 849 119 822 152 l 871 71 q 1053 586 1164 336 q 524 830 941 836 z "},"R":{"ha":1063,"x_min":43,"x_max":1042,"o":"m 71 836 q 722 830 290 808 q 996 537 1042 754 q 656 250 949 320 l 852 -71 q 960 -98 868 -98 l 971 -125 l 559 -125 l 575 -103 q 700 -71 684 -92 l 553 212 q 548 266 499 244 q 841 583 890 363 q 439 789 792 803 q 369 754 374 798 l 369 81 q 510 16 380 11 l 521 -5 l 43 -5 l 54 16 q 222 81 190 5 l 222 749 q 92 798 206 803 l 71 836 z "},"S":{"ha":738,"x_min":60,"x_max":656,"o":"m 581 553 l 559 570 q 488 808 553 798 q 212 722 271 868 q 404 529 152 575 q 654 239 656 483 q 429 -33 651 -5 q 130 49 206 -60 q 92 -109 92 49 l 65 -130 q 60 347 87 103 l 87 331 q 195 52 98 130 q 418 24 293 -27 q 524 225 543 76 q 293 412 505 374 q 117 667 81 450 q 467 873 152 884 q 570 987 548 825 l 591 998 q 581 553 548 787 z "},"T":{"ha":1063,"x_min":49,"x_max":993,"o":"m 49 1031 l 76 1009 q 271 841 49 846 q 792 836 534 814 q 971 1004 977 814 l 993 1015 l 993 570 l 966 586 q 825 787 955 781 q 613 760 618 803 l 613 87 q 749 33 640 22 l 765 0 l 288 0 l 298 22 q 467 87 429 27 l 467 754 q 184 787 450 808 q 81 591 98 798 l 65 581 q 49 1031 76 814 z "},"U":{"ha":1210,"x_min":35,"x_max":1175,"o":"m 35 841 l 52 814 q 220 787 203 814 l 231 288 q 643 -30 328 -43 q 1055 391 958 -16 l 1034 949 q 1153 993 1044 987 l 1175 1020 l 768 1004 l 773 987 q 952 944 941 987 l 979 418 q 705 46 963 38 q 355 304 448 54 l 345 770 q 475 830 345 836 l 502 863 l 35 841 z "},"W":{"ha":1758,"x_min":15,"x_max":1743,"o":"m 810 754 l 581 14 q 496 14 541 -87 l 194 734 l 181 760 q 33 819 168 824 l 15 846 l 435 846 l 422 824 q 321 782 313 824 l 571 125 l 745 689 l 788 852 l 777 901 q 555 939 728 944 l 549 971 l 1000 971 l 1000 944 q 880 901 897 939 l 1222 114 l 1564 787 q 1444 830 1564 841 l 1434 857 l 1743 852 l 1727 825 q 1618 776 1645 814 l 1246 16 q 1143 16 1198 -87 l 810 754 z "},"X":{"ha":1389,"x_min":22,"x_max":1367,"o":"m 76 906 l 92 884 q 260 841 239 879 l 591 374 l 179 33 l 43 22 l 22 0 l 488 0 l 461 22 q 315 65 288 16 l 635 309 l 939 -125 q 792 -190 955 -190 l 770 -212 l 1302 -212 l 1275 -179 q 1150 -163 1183 -179 l 749 407 l 1150 727 q 1329 770 1210 770 l 1367 798 l 819 798 l 841 770 q 1047 738 1015 765 l 716 467 l 456 836 q 559 884 439 873 l 581 906 l 76 906 z "},"V":{"ha":868,"x_min":-281,"x_max":913,"o":"m -11 722 l -42 808 l -53 857 q -275 895 -102 901 l -281 928 l 170 928 l 170 901 q 50 857 66 895 l 392 71 l 734 743 q 614 787 734 798 l 604 814 l 913 808 l 897 781 q 788 732 815 770 l 416 -27 q 313 -27 368 -130 l -11 722 z "},"Y":{"ha":1194,"x_min":-228,"x_max":1128,"o":"m 971 879 l 618 396 l 575 298 l 581 60 q 722 22 618 22 l 732 -5 l 255 -5 l 260 22 q 396 49 380 33 l 396 347 l 5 906 l -38 960 q -217 1020 -71 1020 l -228 1053 q 304 1042 22 1031 l 271 1009 q 130 982 136 1009 l 553 391 l 911 879 q 743 906 884 906 l 705 933 l 1128 933 l 1112 911 q 971 879 998 917 z "},"Z":{"ha":1226,"x_min":60,"x_max":1161,"o":"m 1150 939 l 1161 906 l 1020 770 l 271 27 l 868 54 q 993 239 939 87 l 1031 266 l 955 -141 l 933 -125 q 863 11 933 16 l 81 -27 q 60 11 60 -11 l 901 890 l 260 852 q 157 678 152 798 l 125 678 l 157 1025 l 184 1020 q 239 911 179 884 l 1047 933 l 1150 939 z "},".":{"ha":472,"x_min":141,"x_max":331,"o":"m 141 174 l 141 5 l 331 5 l 331 174 l 141 174 z "},",":{"ha":439,"x_min":125,"x_max":315,"o":"m 125 174 l 125 5 l 244 -11 q 239 -206 282 -54 l 250 -233 l 304 -43 l 315 11 l 315 174 l 125 174 z "},";":{"ha":472,"x_min":144,"x_max":339,"o":"m 149 608 l 149 439 l 339 439 l 339 608 l 149 608 m 144 174 l 144 5 l 263 -11 q 258 -206 293 -49 l 269 -233 l 315 -54 l 334 11 l 334 174 l 144 174 z "},":":{"ha":391,"x_min":100,"x_max":290,"o":"m 100 179 l 100 5 l 290 5 l 290 179 l 100 179 m 100 608 l 100 439 l 290 439 l 290 608 l 100 608 z "},"?":{"ha":955,"x_min":-38,"x_max":944,"o":"m 350 174 l 350 5 l 540 5 l 540 174 l 350 174 m 179 581 q 65 854 -38 667 q 393 1053 168 1042 q 781 966 618 1063 q 925 694 944 868 q 662 483 906 521 q 494 439 456 515 q 423 239 656 336 q 439 431 543 336 q 553 529 336 526 q 798 675 770 532 q 697 933 825 819 q 380 1009 570 1047 q 155 838 190 971 q 141 659 119 705 q 179 581 163 613 z "},"!":{"ha":646,"x_min":146,"x_max":510,"o":"m 233 174 l 233 5 l 423 5 l 423 174 l 233 174 m 146 933 q 510 929 310 925 l 505 903 q 390 867 394 903 l 363 302 q 408 264 369 270 l 420 248 l 243 248 l 248 264 q 310 310 296 275 l 270 863 q 163 903 256 907 l 146 933 z "},"'":{"ha":282,"x_min":46,"x_max":236,"o":"m 46 1053 l 46 884 l 165 868 q 160 673 201 836 l 171 646 l 225 836 l 236 890 l 236 1053 l 46 1053 z "},"\"":{"ha":488,"x_min":22,"x_max":467,"o":"m 277 1047 l 277 879 l 396 863 q 391 667 429 830 l 401 640 l 456 830 l 467 884 l 467 1047 l 277 1047 m 22 1053 l 22 884 l 141 868 q 136 673 168 836 l 146 646 l 201 836 l 212 890 l 212 1053 l 22 1053 z "},"-":{"ha":939,"x_min":76,"x_max":852,"o":"m 76 754 q 76 282 119 526 l 92 277 q 190 439 130 407 l 705 439 q 803 282 781 396 l 841 288 q 852 754 803 494 l 814 760 q 727 640 808 646 l 217 640 q 103 749 130 662 l 76 754 z "},"~":{"ha":993,"x_min":76,"x_max":871,"o":"m 114 656 l 76 673 q 141 776 92 716 q 380 911 206 884 q 656 743 559 901 q 852 808 792 667 l 868 787 q 819 646 871 727 q 526 711 629 553 q 114 656 195 895 z "},"_":{"ha":890,"x_min":3,"x_max":887,"o":"m 3 241 q 3 -110 52 71 l 21 -114 q 132 7 64 -17 l 720 7 q 831 -110 806 -25 l 874 -106 q 887 241 831 47 l 844 244 q 745 156 838 160 l 163 156 q 33 237 64 172 l 3 241 z "},"(":{"ha":477,"x_min":92,"x_max":412,"o":"m 412 1134 q 195 1066 250 1111 q 99 927 141 1021 l 99 -7 q 138 -195 92 -140 q 401 -287 184 -249 l 412 -249 q 248 -49 250 -255 l 248 878 q 407 1093 250 1093 l 412 1134 z "},")":{"ha":477,"x_min":92,"x_max":412,"o":"m 92 1134 q 309 1066 255 1111 q 406 927 363 1021 l 406 -7 q 366 -195 412 -140 q 103 -287 320 -249 l 92 -249 q 256 -49 255 -255 l 256 878 q 98 1093 255 1093 l 92 1134 z "},"[":{"ha":635,"x_min":54,"x_max":597,"o":"m 597 1058 q 54 1027 239 1008 l 60 975 q 175 885 151 987 l 175 -15 q 54 -165 143 -147 l 60 -217 q 559 -249 216 -185 l 559 -208 q 324 -54 328 -195 l 324 836 q 581 1027 340 987 l 597 1058 z "},"]":{"ha":635,"x_min":54,"x_max":597,"o":"m 54 -249 q 597 -218 412 -199 l 591 -165 q 476 -76 500 -178 l 476 824 q 597 974 508 956 l 591 1026 q 92 1058 435 994 l 92 1017 q 327 863 323 1004 l 327 -27 q 71 -218 311 -178 l 54 -249 z "},"/":{"ha":526,"x_min":-35,"x_max":562,"o":"m -35 -5 q 198 -136 84 -43 l 214 -98 q 160 -16 144 -54 l 453 795 q 540 852 502 879 l 562 884 q 334 1031 453 897 l 317 998 q 366 873 377 945 l 62 27 q -24 43 46 -11 l -35 -5 z "},"\\":{"ha":526,"x_min":-38,"x_max":548,"o":"m 521 -125 q 315 -87 434 -76 l 304 -43 q 366 -16 382 -54 l 73 795 q -33 917 33 911 l -38 977 q 201 928 65 928 l 206 873 q 160 873 157 895 l 477 -22 q 548 -71 499 -71 l 521 -125 z "},"*":{"ha":618,"x_min":-14,"x_max":632,"o":"m 350 857 q 263 857 312 760 q 317 1063 301 939 q 350 857 317 895 m 209 814 q 165 732 252 727 q -14 841 127 781 q 209 814 149 792 m 410 825 q 632 852 469 803 q 453 743 491 792 q 410 825 366 738 m 426 646 q 513 456 442 553 q 355 591 431 548 q 426 646 339 694 m 187 646 q 263 591 290 716 q 111 456 187 553 q 187 646 176 559 z "},"@":{"ha":1345,"x_min":-87,"x_max":1383,"o":"m 841 11 q 119 95 326 -109 q 95 578 -87 298 q 616 890 277 857 q 1169 757 955 922 q 1332 393 1383 591 q 1015 155 1280 195 q 770 418 749 114 l 781 553 q 477 488 651 618 q 458 244 304 358 q 684 288 613 130 q 480 163 684 157 q 282 296 277 168 q 415 515 288 423 q 787 608 543 608 q 705 635 787 640 l 684 673 q 1080 618 939 624 l 1085 581 q 895 570 901 608 l 852 374 q 876 250 857 266 q 936 195 895 233 q 1085 220 977 157 q 1196 456 1194 282 q 1031 757 1199 629 q 700 873 863 884 q 407 795 537 863 q 203 556 277 727 q 201 231 130 385 q 429 41 271 76 q 841 11 586 5 z "},"&":{"ha":1259,"x_min":5,"x_max":1351,"o":"m 700 879 q 179 785 305 893 q 111 570 52 677 q 414 435 169 463 q 76 222 146 320 q 10 -14 5 123 q 428 -129 14 -152 q 1101 239 841 -105 q 1351 146 1194 190 l 1351 184 q 935 463 1177 217 l 892 444 q 1005 320 968 353 q 486 -73 785 -92 q 185 92 188 -55 q 298 318 183 238 q 559 437 414 398 q 663 463 704 477 l 667 508 q 308 536 395 426 q 275 745 221 646 q 465 850 329 843 q 667 829 601 857 q 610 705 616 756 l 644 696 q 850 966 690 820 l 803 962 q 700 879 719 907 z "},"#":{"ha":819,"x_min":-60,"x_max":879,"o":"m -60 572 q 68 821 14 650 l 95 796 q 77 703 64 737 l 208 602 l 315 823 l 167 913 q 86 879 144 937 l 73 888 q 230 1082 163 981 l 244 1063 q 230 976 198 996 l 359 905 l 446 1044 q 473 1029 460 1044 l 392 891 l 576 791 l 662 949 q 682 927 690 966 l 604 772 l 774 674 q 851 723 806 684 l 879 709 q 743 485 797 635 l 721 504 q 712 606 752 577 l 562 684 l 456 470 l 590 407 q 662 450 621 401 l 690 436 q 563 187 576 275 l 523 198 q 527 290 572 290 l 406 355 l 361 251 q 334 266 334 237 l 376 375 l 194 470 l 144 378 q 119 404 128 378 l 161 492 l 18 582 q -49 553 -4 606 l -60 572 m 421 494 l 529 707 l 351 798 l 241 587 l 421 494 z "},"%":{"ha":1389,"x_min":-442,"x_max":1831,"o":"m 1050 624 q 716 779 925 792 q 393 613 507 765 q 103 773 160 711 q -193 732 46 836 l -442 521 q -355 401 -442 380 q -144 483 -269 423 q -85 361 -155 353 q 22 472 -16 369 l 80 426 q 203 488 111 374 q 301 434 258 510 q 481 1 247 114 q 891 4 716 -111 q 1099 236 1066 119 q 1104 458 1131 353 l 1180 467 q 1251 288 1185 277 q 1381 363 1316 298 q 1523 294 1449 241 q 1557 442 1598 347 l 1649 409 q 1774 412 1717 363 q 1799 564 1831 461 q 1432 811 1522 787 q 1085 605 1343 836 l 1072 589 l 1050 624 m 1049 494 l 1061 430 q 941 79 1069 155 q 660 24 814 3 q 416 166 507 46 q 360 435 326 287 q 501 666 395 584 q 754 732 607 749 q 1002 595 902 716 l 1049 494 m 898 610 q 814 643 846 627 q 825 681 781 675 q 898 610 865 659 m 830 694 q 792 629 727 675 q 944 564 852 613 q 830 694 925 637 m 1552 499 l 1503 537 l 1443 532 q 1508 396 1503 456 q 1470 339 1514 336 q 1394 483 1427 342 q 1256 342 1291 320 q 1183 543 1221 363 l 1096 510 q 1082 567 1093 540 l 1286 743 q 1470 724 1378 798 q 1674 591 1563 651 q 1755 469 1785 532 q 1552 499 1725 407 m 304 499 q 152 526 222 548 q -5 521 152 396 q -103 548 -119 298 q -347 467 -293 423 q -271 616 -401 510 q -68 732 -141 722 q 33 732 5 743 q 119 673 60 722 l 353 581 q 304 499 326 548 z "}," ":{"ha":407,"x_min":0,"x_max":0,"o":""},"$":{"ha":1156,"x_min":-206,"x_max":1362,"o":"m -206 -301 q 190 46 27 -57 q 239 84 184 95 q 439 165 347 198 l 1318 1137 q 1351 1109 1362 1147 l 477 127 q 429 -35 521 73 q 396 -81 445 -95 q 179 -426 277 -301 l 174 -377 l 103 -442 l 98 -393 l -11 -507 l 16 -420 l -65 -453 l -49 -393 l -168 -404 l -141 -296 l -206 -301 m 298 -16 q 323 16 285 8 l 388 -16 l 426 38 q 423 136 488 92 l 345 92 l 369 122 l 404 149 q 285 98 369 165 l 250 65 q 206 35 209 60 l -30 -146 l -90 -203 l -152 -266 l -106 -260 l -127 -363 l -52 -285 l 71 -171 l -41 -296 l -103 -369 l -16 -353 l -19 -407 l 33 -391 l 30 -439 l 125 -331 l 117 -399 l 195 -304 l 206 -336 q 372 -71 258 -266 q 298 -16 317 -49 m 179 -279 q 269 -125 193 -216 q 179 -279 206 -225 m 33 -285 q 233 -54 95 -195 q 33 -285 119 -212 z "},"+":{"ha":694,"x_min":30,"x_max":665,"o":"m 68 331 l 30 336 q 111 564 95 450 l 155 570 l 133 510 l 290 515 l 296 678 l 274 694 l 203 689 l 203 727 q 513 743 334 722 l 496 694 q 404 673 393 694 l 399 521 l 578 526 q 627 602 610 559 l 665 602 q 637 347 621 488 l 589 347 q 556 445 600 445 l 404 439 l 415 228 q 513 195 431 206 l 496 163 q 236 152 350 179 l 220 190 q 307 239 301 201 l 301 423 l 100 412 l 68 331 z "},">":{"ha":814,"x_min":41,"x_max":773,"o":"m 562 857 q 79 656 307 722 q 79 618 41 640 l 475 570 q 220 288 263 412 q 529 260 420 315 q 296 54 388 190 q 312 33 290 27 q 551 -38 496 11 q 464 -374 431 -222 q 692 -5 475 -190 q 437 98 551 81 q 713 277 610 217 q 713 304 741 293 q 464 380 562 358 q 741 575 600 510 q 746 618 773 597 q 312 700 551 694 q 562 857 496 776 z "},"`":{"ha":1280,"x_min":-80,"x_max":1360,"o":"m 324 651 q 232 667 275 727 q 264 434 248 602 q 324 651 275 586 m 142 949 q 99 868 186 863 q -80 977 61 917 q 142 949 83 928 m 162 697 q -72 608 85 700 q 117 787 77 733 q 162 697 208 792 m 455 713 q 671 667 497 726 q 482 802 485 764 q 455 713 387 808 m 400 944 q 595 1058 471 971 q 465 895 492 960 q 400 944 368 846 m 319 982 q 227 966 270 906 q 259 1199 243 1042 q 319 982 270 1047 m 313 770 q 365 678 351 732 q 438 575 378 624 q 509 480 498 526 q 541 366 519 434 q 587 250 563 298 q 661 144 612 201 q 736 8 709 87 q 793 -133 764 -71 q 867 -228 823 -195 q 956 -374 910 -260 q 1051 -529 1002 -488 q 1130 -627 1100 -570 q 1246 -803 1160 -684 q 1333 -727 1360 -825 l 1257 -618 q 1103 -434 1160 -499 q 1024 -290 1046 -369 q 954 -165 1002 -212 q 867 -62 905 -119 q 812 68 829 -5 q 739 198 796 141 q 650 309 682 255 q 604 431 617 363 q 560 537 590 499 q 479 613 530 575 q 408 700 427 651 q 346 792 389 749 q 313 770 319 803 z "},"=":{"ha":1389,"x_min":-407,"x_max":1801,"o":"m -388 564 q -83 562 -237 549 l -87 543 q -184 517 -180 543 l -184 113 q -91 86 -165 74 q -12 176 1 113 l 11 163 q -3 -49 -9 113 l -25 -34 q -39 60 -18 45 l -407 60 l -399 74 q -283 113 -309 77 l -283 515 q -373 543 -295 546 l -388 564 m -68 446 l -60 433 q 7 422 1 433 l 12 208 q 183 72 53 65 q 354 252 313 78 l 345 492 q 393 511 349 507 l 404 521 l 235 515 l 237 507 q 311 490 307 507 l 322 264 q 209 104 315 101 q 64 215 102 108 l 60 415 q 113 440 60 443 l 124 454 l -68 446 m 304 72 l 313 85 q 373 113 363 82 l 449 450 q 376 471 446 473 l 366 483 l 613 483 l 608 473 q 548 453 543 473 l 733 111 l 895 460 q 814 471 879 476 l 801 481 l 1030 481 l 1020 471 q 939 455 939 473 l 989 98 q 1044 82 1000 80 l 1047 72 l 903 72 l 903 80 q 970 96 960 82 l 926 431 q 911 445 921 455 l 728 31 q 702 31 715 16 l 473 429 l 399 106 q 473 82 410 82 l 477 72 l 304 72 m 1196 461 q 1434 422 1358 477 q 1497 294 1511 366 q 1414 168 1483 222 q 1193 120 1345 114 q 1006 220 1040 126 q 1035 382 971 315 q 1196 461 1099 450 m 1201 433 q 1049 297 1051 408 q 1202 155 1047 185 q 1414 209 1357 125 q 1417 363 1470 292 q 1201 433 1364 434 m 1756 398 l 1743 408 q 1702 547 1740 540 q 1539 497 1573 581 q 1653 385 1506 412 q 1800 215 1801 357 q 1666 57 1798 73 q 1490 104 1535 41 q 1443 62 1468 104 l 1419 71 q 1489 244 1489 133 l 1514 244 q 1535 101 1484 141 q 1660 90 1586 60 q 1722 207 1733 120 q 1586 316 1711 294 q 1482 464 1461 338 q 1689 584 1503 591 q 1750 650 1737 556 l 1763 656 q 1756 398 1737 534 z "},"a":{"ha":705,"x_min":-20,"x_max":694,"o":"m -17 5 l -20 18 q 78 56 56 26 l 282 570 q 163 597 275 621 l 173 624 l 547 624 l 526 591 q 430 570 435 621 l 601 71 q 678 33 618 33 l 694 5 q 427 -5 553 11 l 427 22 q 509 76 503 16 l 439 231 q 185 223 400 240 l 130 51 q 233 31 159 31 l 237 5 l -17 5 m 435 277 l 349 508 q 313 489 338 510 l 235 293 q 435 277 399 280 z "},"b":{"ha":624,"x_min":11,"x_max":613,"o":"m 11 629 l 214 629 l 423 629 q 603 472 613 595 q 500 314 593 349 q 598 148 593 258 q 491 -11 603 37 l 35 -2 l 35 7 q 185 28 156 -2 l 185 314 l 180 574 q 29 612 180 625 l 11 629 m 260 581 l 260 331 l 406 331 q 492 484 505 370 q 318 594 479 597 l 260 581 m 266 286 l 270 35 l 353 26 q 506 128 491 22 q 421 298 521 235 l 266 286 z "},"c":{"ha":662,"x_min":-29,"x_max":627,"o":"m 559 673 l 534 670 l 517 606 q 102 487 233 661 q 108 102 -29 313 q 602 45 245 -109 q 593 71 627 84 q 205 181 288 -61 q 245 535 123 422 q 503 575 368 648 q 538 450 538 563 l 559 429 q 559 673 542 589 z "},"d":{"ha":873,"x_min":49,"x_max":879,"o":"m 287 631 l 49 631 l 56 618 q 182 581 157 605 l 178 64 q 52 14 160 31 l 49 0 l 326 5 q 737 120 595 10 q 809 437 879 229 q 287 631 739 646 m 233 25 q 212 102 201 30 l 212 577 q 224 612 212 608 q 711 326 716 640 q 233 25 706 11 z "},"e":{"ha":635,"x_min":43,"x_max":601,"o":"m 601 452 l 591 678 l 564 678 q 515 627 570 623 l 43 621 l 54 606 q 162 580 136 596 l 162 41 q 82 3 157 3 l 78 -14 l 381 -5 q 434 -54 426 -18 l 450 -54 l 453 126 l 431 114 q 369 29 422 24 q 247 54 247 11 l 247 253 q 350 258 332 275 l 359 164 l 377 160 q 385 380 377 304 l 363 374 l 355 304 q 256 317 269 292 l 252 592 l 511 596 q 578 473 587 602 l 601 452 z "},"f":{"ha":662,"x_min":49,"x_max":613,"o":"m 608 446 q 613 651 588 583 l 570 651 q 517 614 586 591 l 49 610 l 60 594 q 171 541 163 594 l 167 58 q 86 22 163 22 l 83 5 l 357 5 l 334 39 q 252 71 252 31 l 260 256 q 353 264 334 281 l 374 206 l 391 212 q 389 363 380 309 l 371 373 l 357 309 q 260 321 282 294 l 255 583 l 513 586 q 579 469 588 586 l 608 446 z "},"g":{"ha":678,"x_min":24,"x_max":654,"o":"m 643 581 l 616 581 l 609 536 q 274 595 475 642 q 48 336 72 548 q 147 45 24 124 q 540 -43 270 -33 l 536 150 q 621 190 548 194 l 637 210 l 371 210 l 387 178 q 504 84 504 201 l 504 -1 q 175 145 245 -9 q 203 486 104 299 q 572 515 302 673 q 632 396 616 490 l 654 385 l 643 581 z "},"h":{"ha":792,"x_min":43,"x_max":749,"o":"m 43 618 q 319 618 179 618 l 315 593 q 227 553 220 593 l 227 373 l 579 369 l 570 548 q 472 591 559 608 l 461 624 l 711 624 l 700 586 q 618 559 618 602 l 635 30 q 741 5 656 5 l 749 -12 l 465 -16 l 469 5 q 586 33 572 5 l 579 319 l 557 332 l 231 324 l 233 58 q 311 13 237 17 l 311 -3 l 61 1 l 57 13 q 134 42 119 13 l 132 553 q 57 598 113 590 l 43 618 z "},"i":{"ha":510,"x_min":-11,"x_max":521,"o":"m 293 766 q 228 766 264 689 q 269 928 256 830 q 293 766 269 796 m 166 724 q 132 661 201 656 q -11 743 101 699 q 166 724 119 707 m 343 723 q 521 743 391 707 q 378 661 408 698 q 343 723 309 656 m 345 594 q 418 434 358 517 q 285 549 349 512 q 345 594 271 635 m 158 593 q 213 552 233 646 q 103 450 158 524 q 158 593 150 528 m 68 391 q 432 389 248 378 l 427 374 q 312 353 317 374 l 312 41 q 423 16 334 11 l 437 0 l 46 0 l 55 11 q 193 41 161 14 l 193 351 q 85 374 179 376 l 68 391 z "},"j":{"ha":450,"x_min":52,"x_max":399,"o":"m 52 602 q 399 598 235 589 l 395 572 q 291 538 311 568 l 283 13 q 62 -184 247 -225 q 57 -141 52 -163 q 183 0 187 -230 l 183 533 q 67 576 171 576 l 52 602 z "},"k":{"ha":863,"x_min":49,"x_max":836,"o":"m 49 624 q 389 624 216 624 l 385 599 q 289 552 267 599 l 289 369 l 289 160 l 635 559 q 526 586 640 586 l 521 618 l 836 613 l 830 586 q 727 553 738 586 l 499 315 l 570 49 q 700 22 602 22 l 716 -11 l 456 -5 l 456 11 q 505 43 510 16 l 494 109 l 456 277 l 284 83 l 284 41 q 380 -6 289 -2 l 380 -23 l 71 -19 l 66 -6 q 162 24 144 -6 l 157 556 q 66 603 135 595 l 49 624 z "},"l":{"ha":581,"x_min":38,"x_max":553,"o":"m 59 629 q 422 626 238 609 l 418 602 q 303 568 307 602 l 303 60 q 413 28 325 11 q 515 163 524 60 l 553 157 q 519 -141 511 60 l 492 -124 q 475 -5 502 -26 l 38 -5 l 46 11 q 183 60 153 16 l 183 564 q 77 602 170 606 l 59 629 z "},"m":{"ha":1183,"x_min":60,"x_max":1128,"o":"m 60 -8 l 74 12 q 161 56 145 7 l 269 568 q 163 599 266 604 l 149 618 l 505 618 l 498 604 q 412 571 404 604 l 678 103 l 910 584 q 794 599 888 607 l 775 615 l 1105 615 l 1090 599 q 974 576 974 604 l 1045 31 q 1124 7 1060 4 l 1128 -8 l 921 -8 l 921 4 q 1019 28 1004 7 l 956 540 q 933 559 948 576 l 694 0 q 624 0 662 -49 l 302 536 l 197 43 q 302 7 213 7 l 311 -8 l 60 -8 z "},"n":{"ha":933,"x_min":38,"x_max":884,"o":"m 52 615 l 38 635 l 291 627 l 725 156 l 722 553 q 564 597 689 597 l 553 624 l 884 624 l 879 586 q 765 548 781 586 l 770 38 q 720 15 755 -22 l 193 581 l 209 35 q 311 10 225 14 l 326 -3 l 68 -3 l 87 10 q 151 56 144 18 l 162 589 q 52 615 144 618 z "},"o":{"ha":868,"x_min":11,"x_max":868,"o":"m 363 616 q 742 546 615 646 q 840 315 868 446 q 705 87 812 185 q 359 0 597 -11 q 65 181 120 10 q 111 475 11 353 q 363 616 211 597 m 349 570 q 92 320 97 526 q 352 59 87 113 q 712 159 616 5 q 719 444 808 313 q 349 570 629 575 z "},"p":{"ha":830,"x_min":11,"x_max":836,"o":"m 33 621 q 584 621 213 600 q 784 361 836 557 q 396 169 732 165 q 382 193 373 177 q 682 418 718 212 q 337 587 646 624 q 279 561 283 593 l 279 64 q 396 17 288 13 l 405 0 l 11 0 l 19 17 q 158 64 131 9 l 158 557 q 51 593 144 597 l 33 621 z "},"q":{"ha":803,"x_min":5,"x_max":798,"o":"m 323 615 q 679 544 560 646 q 771 311 798 443 q 679 110 745 179 q 557 10 612 41 l 570 -10 q 663 -25 587 -34 l 683 -41 q 457 -98 564 -49 l 467 -65 q 543 -25 533 -53 l 526 6 q 190 6 319 -53 q 33 211 60 65 q 92 476 5 356 q 323 615 179 596 m 322 584 q 98 336 104 534 q 219 64 92 138 q 511 40 347 -11 l 500 81 q 527 87 511 109 l 541 52 q 656 412 727 238 q 322 584 585 586 z "},"r":{"ha":760,"x_min":22,"x_max":738,"o":"m 41 640 q 508 637 197 621 q 704 415 738 580 q 460 197 671 250 l 618 60 q 711 43 651 49 l 716 5 l 445 5 l 450 33 l 499 49 l 387 168 q 383 210 348 193 q 593 450 628 283 q 305 606 559 616 q 254 580 258 612 l 254 70 q 356 20 262 16 l 363 4 l 22 4 l 29 20 q 150 70 126 12 l 150 575 q 56 612 138 616 l 41 640 z "},"s":{"ha":537,"x_min":38,"x_max":505,"o":"m 445 477 l 418 494 q 374 577 425 569 q 160 515 206 619 q 309 379 114 412 q 502 174 505 347 q 328 -17 500 2 q 98 40 156 -37 q 71 -16 68 40 l 38 -11 q 43 190 64 79 l 65 184 q 147 42 72 98 q 319 23 222 -14 q 401 164 416 59 q 223 297 387 270 q 87 477 60 323 q 357 623 114 631 q 418 640 420 589 l 456 640 q 445 477 420 562 z "},"t":{"ha":700,"x_min":24,"x_max":675,"o":"m 24 618 l 46 618 q 177 573 24 576 q 536 568 358 554 q 654 618 637 564 l 670 635 l 675 388 l 656 400 q 558 536 648 532 q 412 517 416 547 l 412 61 q 506 24 431 17 l 517 0 l 188 0 l 195 17 q 311 61 286 20 l 311 514 q 117 536 300 551 q 46 404 57 543 l 35 397 q 24 618 42 554 z "},"u":{"ha":787,"x_min":8,"x_max":749,"o":"m 8 602 l 18 582 q 132 563 121 582 l 140 212 q 418 -12 205 -22 q 697 284 631 -2 l 678 564 q 749 586 684 597 l 749 613 l 532 613 l 532 586 q 624 548 613 597 l 646 303 q 460 42 635 36 q 224 223 286 47 l 216 551 q 304 593 216 597 l 323 616 l 8 602 z "},"w":{"ha":1476,"x_min":31,"x_max":1444,"o":"m 678 483 l 493 -10 q 424 -10 460 -87 l 176 529 l 165 549 q 45 593 155 596 l 31 613 l 373 613 l 363 596 q 281 565 273 596 l 485 73 l 635 472 l 656 526 l 662 559 q 570 586 624 591 l 559 618 l 841 618 l 836 575 q 760 515 749 586 l 1017 65 l 1296 569 q 1200 601 1296 610 l 1190 621 l 1444 617 l 1430 597 q 1341 560 1364 589 l 1038 -8 q 954 -8 997 -87 l 678 483 z "},"v":{"ha":906,"x_min":21,"x_max":885,"o":"m 102 543 q 21 586 86 586 l 21 613 l 271 613 l 265 581 q 195 553 200 581 l 460 84 l 739 564 q 642 594 739 602 l 633 614 l 885 610 l 871 591 q 783 555 804 583 l 480 14 q 397 14 433 -49 l 102 543 z "},"x":{"ha":1020,"x_min":28,"x_max":991,"o":"m 72 627 l 83 605 q 202 583 180 605 l 437 268 l 141 21 l 45 22 l 28 3 l 362 3 l 346 24 q 238 45 218 10 l 468 221 l 582 60 q 541 22 595 22 l 528 3 l 875 3 l 861 24 q 739 41 755 14 l 550 292 l 864 545 q 975 594 910 589 l 991 621 l 663 621 l 680 600 q 810 567 826 594 l 526 334 l 349 583 q 419 605 349 605 l 425 627 l 72 627 z "},"y":{"ha":1015,"x_min":43,"x_max":971,"o":"m 861 578 l 616 261 l 585 197 l 589 41 q 688 16 616 16 l 695 -3 l 362 -3 l 367 16 q 461 34 450 22 l 461 229 l 190 586 q 73 605 168 608 l 43 627 q 385 627 195 627 l 377 610 q 315 594 309 616 l 570 258 l 820 578 q 711 608 825 610 l 705 624 l 971 624 l 958 605 q 861 578 880 604 z "},"z":{"ha":852,"x_min":65,"x_max":803,"o":"m 794 627 l 803 605 l 250 27 l 605 35 q 689 158 652 56 l 714 176 l 667 -38 l 635 -33 q 602 5 648 9 l 79 -20 q 65 5 65 -9 l 627 595 l 198 569 q 129 452 126 532 l 107 452 l 125 651 l 157 651 q 184 608 143 591 l 725 623 l 794 627 z "},"^":{"ha":673,"x_min":-4,"x_max":677,"o":"m 460 675 q 356 719 421 723 q 254 672 290 715 q 166 716 184 700 q 84 700 148 732 q 7 630 19 655 q 23 611 -4 605 q 87 635 50 618 l 109 652 l 84 627 l 87 617 q 108 600 86 598 q 136 633 130 602 l 147 649 l 151 648 l 143 628 q 165 614 151 611 q 197 636 179 618 q 227 622 214 643 q 283 497 210 531 q 410 497 356 464 q 474 565 464 531 q 476 629 484 598 l 500 631 q 518 606 515 616 q 531 589 522 595 q 566 596 541 583 q 542 623 554 605 q 578 597 564 602 q 605 599 591 593 q 616 624 619 605 l 591 648 l 623 628 l 640 622 q 665 630 652 624 q 665 660 677 636 q 570 713 591 700 q 470 669 549 726 l 466 665 l 460 675 m 455 636 l 458 619 q 424 526 463 547 q 339 511 385 505 q 266 550 292 517 q 250 621 240 582 q 292 681 260 660 q 367 699 323 703 q 441 663 411 695 l 455 636 z "}}}
